<svg xmlns="http://www.w3.org/2000/svg" width="440" height="344" viewBox="0 0 440 344"><path d="M41 185h4v6h-4zm-16-45h4v-6h-4zm-1-81h12v-8H24zM13 205h4v-4h-4zM176 37h-24v12h24zM14 90H8v11h6zM200 9h-40v24h40zm-70 61h-9v10h9zm-63 0h21V57H67zm294 23s-30 34-33 34l-14 5-13 51-17 11-54-18-9-16-83 30-10-11-4 11-18 11-13-6-2-12 5-23 18-5-9-17 24-29 64-47 82-33 15 7 6 10 34-18 30 7 9 22zm-7-31l-7-16-22-5-24 18 5 11 22 6-7 24-8 16 32-21zM247 248l-16 74 68 19 11-11-44-21zm180-64l-28 41-42 7 52 26 29-80zM102 21H62v22h40zM42 94h5v-8h-5zm29 25h5v-6h-5z" fill="#fff"/><path fill="#f06292" d="M172 271l20-47-21-8 62-30-11-26-118 47-2 21 16 25 54 18z"/><path d="M47 183l-8-9c-1-2-1-6-3-7-4-4-4 5-3 8 0 6 3 14 9 17 8 4 9-4 5-9zm-5 7v-4c3 1 1 5 0 4zM4 139c1 2 2 7-1 7-4 0-5-10 1-7zm13 120c-7 0-13-15-5-11 3 2 12 12 5 11zm37 22c-2 1-7-5-7-7 2 0 8 6 7 7zm-8-148c-2-3 0-6 1-9 4 0 7 10 4 12-2 1-4-1-5-3zm-35 65c0 3 1 7 4 9s5 2 6-2c0-4-9-15-10-7zm3 6c-1-1 1-4 2-2 0 1-1 3-2 2zm27 49c-2 0-5-1-5-3s5 1 5 3zM18 77C9 80 5 88 4 97c0 5 7 17 13 11 4-4 0-18 2-24 1-1 4-4 3-6 0-4-2-1-4-1zm-7 23c-3 0-1-7 0-8v8zm20 20c-4 1-8 11-8 14-1 3 0 12 5 11 5 0 4-8 4-11-1-3 2-14-1-14zm-4 19a5 5 0 010-3 3 3 0 010 3zm47 71c-2 1-5-4-5-5 2-1 8 3 5 5zM256 98l10-10 5-6c5 5-13 19-17 21-7 4 0-3 2-5zm184 81c-1-4-7-9-6-3-6 0-10 9-13 13a128 128 0 01-12 19l-7 9c-1 1-5 7-7 7-2 1-8-6-10-8-12-9-26-18-40-24l-21-7-21-4a114 114 0 0012-33c1-3 0-11 2-13 2-3 9-4 12-6 19-10 34-30 40-51 4-18 1-41-16-50-20-11-43 3-57 16-5-11-9-18-23-16a121 121 0 00-38 12c-10-26-34-36-60-39-10-1-45-4-38 15-19-2-40-3-59 0-6 1-49 12-37 26-5 2-35 14-24 25 4 4 14 1 18-1 8-3 15-7 23-8-9 10-20 18-22 32-2 17 12 15 21 7l13-14c5-5 12-9 20-11l19-4c3-1 13-4 16-1-5 2-10 5-10 11-1 6 3 9 9 8 15-4 26-17 41-6a279 279 0 00-45 35c-6 5-13 12-16 20a15 15 0 000 9c0 1 3 6 1 7-3-4-5-3-8-2-2 0-4 0-6 2l-1 4-2 2c-1 5 4 7 5 10s-1 8-2 11c-1 4-2 9-1 14 1 7 8 11 15 12-12 8-3 29 3 38 12 17 32 26 51 29l10 4c6 3 6 0 11-1l10 3c5 0 9-2 13-3 10-4 19-6 27-14 7-7 15-15 19-25 4 3-8 22-10 25-3 9-7 22-6 31l2 6-3 10c-2 6-6 13-2 18 3 4 10 5 14 6 4 0 6-3 10-1 4 3 7 7 13 10a39 39 0 0017 3c8 0 20 2 26-7 7-11-14-16-21-19-6-2-28-11-24-20 3 2 12-21 13-23 6-13 10-27 13-41 6-24 10-53-19-63a53 53 0 00-14 0c-5 0-9 2-13 3 5-5 17-15 15-24l-2-4v-3l-2-4c-2-1-3 1-5 1 2-8 1-16-8-9-9 8-15 23-26 29a214 214 0 01-41 17l-21 6c-3 1-12 5-16 4-3-1-7-9-9-12-4-5-6-12-10-18-2-3-7-6-3-9 2-1 12-1 5-3-3-1-9 2-11-1-3-4 5-15 7-18 8-11 21-20 32-29-2 4 0 8-1 11l-2 8c-3 8-13 11-19 14-15 9 6-12 4-14-4 4-13 9-15 15-2 11 15 3 19 2a464 464 0 00124-72c3-4 19-17 13-22-7-6-19 9-28 4 10-3 23-9 33-9 13 0 7 10 4 17a51 51 0 018-7l12 24c2 5 1 5-1 9-3 4-15 20-4 20 0 4 0 11 7 10-1 7 3 8 8 7-2 13-2 25-5 37a89 89 0 01-7 18c-2 5-7 10-7 16l5 16a66 66 0 01-1 18c0 1-2 5-1 6 0 2 1 1 2 2 4 2 14 3 18 4 14 3 28 5 41 10l17 6 11 1c4 2 4 5 8 8 4 2 10 6 15 5 9-2 16-21 11-28 10-4 15-24 18-34 1-5 4-13 3-19zM24 56c0-1 5-6 7-4 2 3-5 7-7 4zm19 34l1-3c2-1 2 2 2 2 0 4-2 6-3 1zm35-26l-8 5c1-3 10-11 14-9 2 0-5 3-6 4zm14-39c-6 3-16 2-23 5-5 1-9 0-2-3 6-3 14-5 21-5 3 0 11 0 4 3zm30 53c0-1 2-7 3-5 2 2-1 5-3 5zm185 254c-4 7-20 4-26 3a60 60 0 01-14-4c-5-2-8-6-12-9l-5-2c-2 0-2 2-3 2h-6c-4-1-5 0-6-3s2-9 2-11a19 19 0 010-5c5 3 21 6 25 2 6 18 29 22 45 27zm-50-35c4 0 3 1 4 4-5 1-23 0-23-6l19 2zm-60-85c-1 2-2 7-4 8-4 2-12-3-15-5 3-3 10-4 14-6 2-1 9-6 11-5a62 62 0 00-6 8zm29-54c0-3 4-6 7-9 1-2 12-17 14-15-1 3-8 14-2 16 4 1 6-10 10-7-2 3-7 6-6 10 2 5 3 0 6 0-6 8-14 17-24 21-1-5-7-10-5-16zm-85 38c4-1 9-5 14-6 11-2 22-5 33-10 11-4 22-11 33-16 2 4 9 13 7 17-1 3-7 6-9 8a107 107 0 01-13 7c-18 9-37 16-56 21l-13 3c-3 1-11 3-13 5-2 6 15 3 17 2l25-8c8-1 16 5 23 7a109 109 0 00-11 22 60 60 0 00-3 11c-1 2 0 6-2 8s-4-1-6-2l-11-1a100 100 0 01-16-5c-17-7-43-25-34-47 2 1 6-4 8-5a170 170 0 0116-8c2-1 4-3 7-3h4zm-14-13c2 2 5 3 6 6l-8 3c1-3 3-6 2-9zm-16-19c5 4 2 6 3 11 2 5 5 2 8-1a12 12 0 012 3c-4 1-2 2-1 4l1 3-3 4c-4 7-11 11-19 10-4 0-9-3-9-7a17 17 0 010-6l4-5c1 4 5 6 6 2l-1-1q-3 0-1-3l-3-4-3 4c0-4 0-9 3-12s10-4 13-2zm47-65c0-3 5 0 5 2 0 4-5 1-5-2zm12-4l-1 3-3-2a11 11 0 014-2zm-18-1l13-9c4-2 4-2 5 3-6 4-10 6-18 6zm5-50c1-5 11-5 14-2-1 3-17 8-14 2zm32-27c-1 0-15-4-15-2-2-1-9 0-8-3 1-2 5-2 7-2 5-1 22 1 24 7 3 6-6 1-8 0zm14 53l-5 1c-1-1 1-3 2-4 3-1 6 4 7 6-2 0-3-2-4-3zm66-29c3 3-9 4-10 5l-2-2c2-1 9-5 12-3zm60 39a16 16 0 00-6-10c-4-4-7-2-13-2-3 1-3-1-4-4-2-6-2-7 3-10 8-6 17-11 27-10 22 3 16 30 9 43-5 8-11 15-18 20-6 3-14 6-7-3 5-7 10-15 9-24zm-27-25c-1-2-4-4-3-7 1-2 7-5 9-6 7-5 15-9 24-10 13-2 27 3 32 16 7 16-1 35-10 49a81 81 0 01-18 18 88 88 0 01-12 8c-1 1-7 5-6 3 0-8 1-7 7-11a69 69 0 0017-15c9-10 14-23 13-37-1-10-7-22-19-24-13-2-25 7-34 16zm6 52c0-2 7-11 3-13-3-1-6 4-8 5 0-4 4-8 7-12 0-7-4-4-9-2 3-5 4-9 8-10 5-1 12-2 15 3 4 8-8 26-16 29zm81 134a18 18 0 01-5-1l7-12c3 3-1 10-2 13zm35-29c-2 7-14 17-9 23l-5 12c-1 1-2 5-4 6-2 2 0 2-4 1l-10-5c2-2 2-5 3-7l4-10c2-4 1-4 4-7a72 72 0 007-7 134 134 0 0013-19c3-4 6-16 11-18a145 145 0 01-10 31zM202 70h-2a2 2 0 012 0zm68 38c-1-3 9-12 10-11 1 2-9 10-10 11zM60 242c-5 1-14-10-9-12 2 0 10 10 9 12zM271 59l-23 19c-2 1-21 13-22 12 0-2 9-7 11-8l15-10c2-1 17-15 19-13zM107 177l1-5c4 0 3 8 0 8-4 2-5-4-4-7 1 1 1 4 3 4zm-25 87c-2 0-3-1-3-3a3 3 0 013 3zm-20-92c-3-2-9-12-2-10 3 1 7 10 2 10zm44 19c-2 5-11 1-8-4a15 15 0 004 1l2-1c2 1 4 1 2 4zm-34-70c5 7 9-1 9-7 1-8 0-12 7-18-4-8-25 14-16 25zm0-4c0-3 3-6 3-2 0 2-3 5-3 2zm20 168c-6-5 1-3 4-2 7 3 1 7-4 2zm15-21c-2 0-7-2-5-4s5 2 5 4z" fill="#020203"/></svg>